<mxfile host="Electron" agent="Mozilla/5.0 (Windows NT 10.0; Win64; x64) AppleWebKit/537.36 (KHTML, like Gecko) draw.io/24.7.17 Chrome/128.0.6613.36 Electron/32.0.1 Safari/537.36" version="24.7.17">
  <diagram name="Page-1" id="8lV1AGU68cAzwq_eqSQ1">
    <mxGraphModel dx="1036" dy="614" grid="1" gridSize="10" guides="1" tooltips="1" connect="1" arrows="1" fold="1" page="1" pageScale="1" pageWidth="850" pageHeight="1100" math="0" shadow="0">
      <root>
        <mxCell id="0" />
        <mxCell id="1" parent="0" />
        <mxCell id="UFCH-Ql5siNM_Z09RCYU-2" value="" style="rounded=0;whiteSpace=wrap;html=1;fillColor=none;dashed=1;strokeColor=#828282;" parent="1" vertex="1">
          <mxGeometry x="50" y="120" width="130" height="440" as="geometry" />
        </mxCell>
        <mxCell id="UFCH-Ql5siNM_Z09RCYU-3" value="&lt;font style=&quot;font-size: 19px;&quot;&gt;Sources&lt;/font&gt;" style="rounded=0;whiteSpace=wrap;html=1;strokeColor=none;" parent="1" vertex="1">
          <mxGeometry x="70" y="110" width="90" height="30" as="geometry" />
        </mxCell>
        <mxCell id="UFCH-Ql5siNM_Z09RCYU-4" value="" style="image;aspect=fixed;html=1;points=[];align=center;fontSize=12;image=img/lib/azure2/general/Folder_Blank.svg;" parent="1" vertex="1">
          <mxGeometry x="92.5" y="240" width="55" height="44.64" as="geometry" />
        </mxCell>
        <mxCell id="UFCH-Ql5siNM_Z09RCYU-22" style="edgeStyle=orthogonalEdgeStyle;rounded=0;orthogonalLoop=1;jettySize=auto;html=1;entryX=0;entryY=0.75;entryDx=0;entryDy=0;" parent="1" source="UFCH-Ql5siNM_Z09RCYU-5" target="UFCH-Ql5siNM_Z09RCYU-15" edge="1">
          <mxGeometry relative="1" as="geometry" />
        </mxCell>
        <mxCell id="UFCH-Ql5siNM_Z09RCYU-23" style="edgeStyle=orthogonalEdgeStyle;rounded=0;orthogonalLoop=1;jettySize=auto;html=1;entryX=0;entryY=0.5;entryDx=0;entryDy=0;" parent="1" source="UFCH-Ql5siNM_Z09RCYU-5" target="UFCH-Ql5siNM_Z09RCYU-16" edge="1">
          <mxGeometry relative="1" as="geometry" />
        </mxCell>
        <mxCell id="UFCH-Ql5siNM_Z09RCYU-24" style="edgeStyle=orthogonalEdgeStyle;rounded=0;orthogonalLoop=1;jettySize=auto;html=1;entryX=0;entryY=0.75;entryDx=0;entryDy=0;" parent="1" source="UFCH-Ql5siNM_Z09RCYU-5" target="UFCH-Ql5siNM_Z09RCYU-14" edge="1">
          <mxGeometry relative="1" as="geometry" />
        </mxCell>
        <mxCell id="UFCH-Ql5siNM_Z09RCYU-5" value="" style="image;aspect=fixed;html=1;points=[];align=center;fontSize=12;image=img/lib/azure2/general/File.svg;" parent="1" vertex="1">
          <mxGeometry x="123.15" y="260" width="24.35" height="30" as="geometry" />
        </mxCell>
        <mxCell id="UFCH-Ql5siNM_Z09RCYU-6" value="&lt;b&gt;CRM&lt;/b&gt;" style="text;html=1;align=center;verticalAlign=middle;whiteSpace=wrap;rounded=0;" parent="1" vertex="1">
          <mxGeometry x="90" y="300" width="60" height="30" as="geometry" />
        </mxCell>
        <mxCell id="UFCH-Ql5siNM_Z09RCYU-7" value="" style="image;aspect=fixed;html=1;points=[];align=center;fontSize=12;image=img/lib/azure2/general/Folder_Blank.svg;" parent="1" vertex="1">
          <mxGeometry x="92.5" y="440" width="55" height="44.64" as="geometry" />
        </mxCell>
        <mxCell id="UFCH-Ql5siNM_Z09RCYU-26" style="edgeStyle=orthogonalEdgeStyle;rounded=0;orthogonalLoop=1;jettySize=auto;html=1;entryX=0;entryY=0.75;entryDx=0;entryDy=0;" parent="1" source="UFCH-Ql5siNM_Z09RCYU-8" target="UFCH-Ql5siNM_Z09RCYU-17" edge="1">
          <mxGeometry relative="1" as="geometry" />
        </mxCell>
        <mxCell id="UFCH-Ql5siNM_Z09RCYU-28" style="edgeStyle=orthogonalEdgeStyle;rounded=0;orthogonalLoop=1;jettySize=auto;html=1;entryX=0;entryY=0.75;entryDx=0;entryDy=0;" parent="1" source="UFCH-Ql5siNM_Z09RCYU-8" target="UFCH-Ql5siNM_Z09RCYU-19" edge="1">
          <mxGeometry relative="1" as="geometry" />
        </mxCell>
        <mxCell id="UFCH-Ql5siNM_Z09RCYU-8" value="" style="image;aspect=fixed;html=1;points=[];align=center;fontSize=12;image=img/lib/azure2/general/File.svg;" parent="1" vertex="1">
          <mxGeometry x="123.15" y="460" width="24.35" height="30" as="geometry" />
        </mxCell>
        <mxCell id="UFCH-Ql5siNM_Z09RCYU-9" value="&lt;b&gt;ERP&lt;/b&gt;" style="text;html=1;align=center;verticalAlign=middle;whiteSpace=wrap;rounded=0;" parent="1" vertex="1">
          <mxGeometry x="92.5" y="500" width="60" height="30" as="geometry" />
        </mxCell>
        <mxCell id="UFCH-Ql5siNM_Z09RCYU-12" value="Bronze Layer" style="rounded=1;whiteSpace=wrap;html=1;fillColor=#ffe6cc;strokeColor=#d79b00;fontStyle=1" parent="1" vertex="1">
          <mxGeometry x="280" y="110" width="130" height="50" as="geometry" />
        </mxCell>
        <mxCell id="UFCH-Ql5siNM_Z09RCYU-13" value="" style="rounded=1;whiteSpace=wrap;html=1;fillColor=none;strokeColor=#d79b00;" parent="1" vertex="1">
          <mxGeometry x="280" y="180" width="130" height="380" as="geometry" />
        </mxCell>
        <mxCell id="UFCH-Ql5siNM_Z09RCYU-14" value="&lt;b&gt;crm_sales_details&lt;/b&gt;" style="rounded=1;whiteSpace=wrap;html=1;fillColor=#ffe6cc;strokeColor=#d79b00;" parent="1" vertex="1">
          <mxGeometry x="290" y="190" width="110" height="30" as="geometry" />
        </mxCell>
        <mxCell id="8aWMY3QicTbjsUbQjaiv-10" style="edgeStyle=orthogonalEdgeStyle;rounded=0;orthogonalLoop=1;jettySize=auto;html=1;entryX=0;entryY=0.5;entryDx=0;entryDy=0;" parent="1" source="UFCH-Ql5siNM_Z09RCYU-15" target="8aWMY3QicTbjsUbQjaiv-4" edge="1">
          <mxGeometry relative="1" as="geometry" />
        </mxCell>
        <mxCell id="UFCH-Ql5siNM_Z09RCYU-15" value="&lt;b&gt;crm_prd_info&lt;/b&gt;" style="rounded=1;whiteSpace=wrap;html=1;fillColor=#ffe6cc;strokeColor=#d79b00;" parent="1" vertex="1">
          <mxGeometry x="290" y="240" width="110" height="40" as="geometry" />
        </mxCell>
        <mxCell id="8aWMY3QicTbjsUbQjaiv-11" style="edgeStyle=orthogonalEdgeStyle;rounded=0;orthogonalLoop=1;jettySize=auto;html=1;entryX=0;entryY=0.5;entryDx=0;entryDy=0;" parent="1" source="UFCH-Ql5siNM_Z09RCYU-16" target="8aWMY3QicTbjsUbQjaiv-5" edge="1">
          <mxGeometry relative="1" as="geometry" />
        </mxCell>
        <mxCell id="UFCH-Ql5siNM_Z09RCYU-16" value="&lt;b&gt;crm_cust_info&lt;/b&gt;" style="rounded=1;whiteSpace=wrap;html=1;fillColor=#ffe6cc;strokeColor=#d79b00;" parent="1" vertex="1">
          <mxGeometry x="290" y="300" width="110" height="40" as="geometry" />
        </mxCell>
        <mxCell id="8aWMY3QicTbjsUbQjaiv-12" style="edgeStyle=orthogonalEdgeStyle;rounded=0;orthogonalLoop=1;jettySize=auto;html=1;entryX=0;entryY=0.5;entryDx=0;entryDy=0;" parent="1" source="UFCH-Ql5siNM_Z09RCYU-17" target="8aWMY3QicTbjsUbQjaiv-6" edge="1">
          <mxGeometry relative="1" as="geometry" />
        </mxCell>
        <mxCell id="UFCH-Ql5siNM_Z09RCYU-17" value="&lt;b&gt;erp_cust_az12&amp;nbsp;&lt;/b&gt;" style="rounded=1;whiteSpace=wrap;html=1;fillColor=#ffe6cc;strokeColor=#d79b00;" parent="1" vertex="1">
          <mxGeometry x="290" y="400" width="110" height="40" as="geometry" />
        </mxCell>
        <mxCell id="8aWMY3QicTbjsUbQjaiv-13" style="edgeStyle=orthogonalEdgeStyle;rounded=0;orthogonalLoop=1;jettySize=auto;html=1;entryX=0;entryY=0.5;entryDx=0;entryDy=0;" parent="1" source="UFCH-Ql5siNM_Z09RCYU-18" target="8aWMY3QicTbjsUbQjaiv-7" edge="1">
          <mxGeometry relative="1" as="geometry" />
        </mxCell>
        <mxCell id="UFCH-Ql5siNM_Z09RCYU-18" value="&lt;b&gt;erp_loc_a101&lt;/b&gt;" style="rounded=1;whiteSpace=wrap;html=1;fillColor=#ffe6cc;strokeColor=#d79b00;" parent="1" vertex="1">
          <mxGeometry x="290" y="450" width="110" height="40" as="geometry" />
        </mxCell>
        <mxCell id="8aWMY3QicTbjsUbQjaiv-14" style="edgeStyle=orthogonalEdgeStyle;rounded=0;orthogonalLoop=1;jettySize=auto;html=1;entryX=0;entryY=0.5;entryDx=0;entryDy=0;" parent="1" source="UFCH-Ql5siNM_Z09RCYU-19" target="8aWMY3QicTbjsUbQjaiv-8" edge="1">
          <mxGeometry relative="1" as="geometry" />
        </mxCell>
        <mxCell id="UFCH-Ql5siNM_Z09RCYU-19" value="&lt;b&gt;erp_px_cat_g1v2&lt;/b&gt;" style="rounded=1;whiteSpace=wrap;html=1;fillColor=#ffe6cc;strokeColor=#d79b00;" parent="1" vertex="1">
          <mxGeometry x="290" y="500" width="110" height="40" as="geometry" />
        </mxCell>
        <mxCell id="UFCH-Ql5siNM_Z09RCYU-21" value="data flow diagram" style="text;html=1;align=center;verticalAlign=middle;whiteSpace=wrap;rounded=0;fontStyle=1;fontSize=30;" parent="1" vertex="1">
          <mxGeometry x="10" y="20" width="320" height="70" as="geometry" />
        </mxCell>
        <mxCell id="UFCH-Ql5siNM_Z09RCYU-25" style="edgeStyle=orthogonalEdgeStyle;rounded=0;orthogonalLoop=1;jettySize=auto;html=1;entryX=0.091;entryY=0.625;entryDx=0;entryDy=0;entryPerimeter=0;" parent="1" source="UFCH-Ql5siNM_Z09RCYU-8" target="UFCH-Ql5siNM_Z09RCYU-18" edge="1">
          <mxGeometry relative="1" as="geometry" />
        </mxCell>
        <mxCell id="8aWMY3QicTbjsUbQjaiv-1" value="Silver Layer" style="rounded=1;whiteSpace=wrap;html=1;fillColor=#f5f5f5;strokeColor=#666666;fontStyle=1;fontColor=#333333;" parent="1" vertex="1">
          <mxGeometry x="470" y="110" width="130" height="50" as="geometry" />
        </mxCell>
        <mxCell id="8aWMY3QicTbjsUbQjaiv-2" value="" style="rounded=1;whiteSpace=wrap;html=1;fillColor=none;strokeColor=#666666;fontColor=#333333;" parent="1" vertex="1">
          <mxGeometry x="470" y="180" width="130" height="380" as="geometry" />
        </mxCell>
        <mxCell id="8aWMY3QicTbjsUbQjaiv-3" value="&lt;b&gt;crm_sales_details&lt;/b&gt;" style="rounded=1;whiteSpace=wrap;html=1;fillColor=#f5f5f5;strokeColor=#666666;fontColor=#333333;" parent="1" vertex="1">
          <mxGeometry x="480" y="190" width="110" height="30" as="geometry" />
        </mxCell>
        <mxCell id="8aWMY3QicTbjsUbQjaiv-4" value="&lt;b&gt;crm_prd_info&lt;/b&gt;" style="rounded=1;whiteSpace=wrap;html=1;fillColor=#f5f5f5;strokeColor=#666666;fontColor=#333333;" parent="1" vertex="1">
          <mxGeometry x="480" y="240" width="110" height="40" as="geometry" />
        </mxCell>
        <mxCell id="8aWMY3QicTbjsUbQjaiv-5" value="&lt;b&gt;crm_cust_info&lt;/b&gt;" style="rounded=1;whiteSpace=wrap;html=1;fillColor=#f5f5f5;strokeColor=#666666;fontColor=#333333;" parent="1" vertex="1">
          <mxGeometry x="480" y="300" width="110" height="40" as="geometry" />
        </mxCell>
        <mxCell id="8aWMY3QicTbjsUbQjaiv-6" value="&lt;b&gt;erp_cust_az12&amp;nbsp;&lt;/b&gt;" style="rounded=1;whiteSpace=wrap;html=1;fillColor=#f5f5f5;strokeColor=#666666;fontColor=#333333;" parent="1" vertex="1">
          <mxGeometry x="480" y="400" width="110" height="40" as="geometry" />
        </mxCell>
        <mxCell id="8aWMY3QicTbjsUbQjaiv-7" value="&lt;b&gt;erp_loc_a101&lt;/b&gt;" style="rounded=1;whiteSpace=wrap;html=1;fillColor=#f5f5f5;strokeColor=#666666;fontColor=#333333;" parent="1" vertex="1">
          <mxGeometry x="480" y="450" width="110" height="40" as="geometry" />
        </mxCell>
        <mxCell id="8aWMY3QicTbjsUbQjaiv-8" value="&lt;b&gt;erp_px_cat_g1v2&lt;/b&gt;" style="rounded=1;whiteSpace=wrap;html=1;fillColor=#f5f5f5;strokeColor=#666666;fontColor=#333333;" parent="1" vertex="1">
          <mxGeometry x="480" y="500" width="110" height="40" as="geometry" />
        </mxCell>
        <mxCell id="8aWMY3QicTbjsUbQjaiv-9" style="edgeStyle=orthogonalEdgeStyle;rounded=0;orthogonalLoop=1;jettySize=auto;html=1;entryX=0.028;entryY=0.065;entryDx=0;entryDy=0;entryPerimeter=0;" parent="1" source="UFCH-Ql5siNM_Z09RCYU-14" target="8aWMY3QicTbjsUbQjaiv-2" edge="1">
          <mxGeometry relative="1" as="geometry" />
        </mxCell>
        <mxCell id="p9el1GTdu6GcQU3KclK2-1" value="gold" style="rounded=1;whiteSpace=wrap;html=1;fillColor=#fff2cc;strokeColor=#d6b656;fontStyle=1;" vertex="1" parent="1">
          <mxGeometry x="660" y="110" width="130" height="50" as="geometry" />
        </mxCell>
        <mxCell id="p9el1GTdu6GcQU3KclK2-2" value="" style="rounded=1;whiteSpace=wrap;html=1;fillColor=none;strokeColor=#d6b656;" vertex="1" parent="1">
          <mxGeometry x="660" y="180" width="130" height="380" as="geometry" />
        </mxCell>
        <mxCell id="p9el1GTdu6GcQU3KclK2-10" value="&lt;b&gt;customers&lt;/b&gt;" style="rounded=1;whiteSpace=wrap;html=1;fillColor=#fff2cc;strokeColor=#d6b656;" vertex="1" parent="1">
          <mxGeometry x="670" y="460" width="110" height="40" as="geometry" />
        </mxCell>
        <mxCell id="p9el1GTdu6GcQU3KclK2-11" value="&lt;b&gt;products&lt;/b&gt;" style="rounded=1;whiteSpace=wrap;html=1;fillColor=#fff2cc;strokeColor=#d6b656;" vertex="1" parent="1">
          <mxGeometry x="670" y="340" width="110" height="40" as="geometry" />
        </mxCell>
        <mxCell id="p9el1GTdu6GcQU3KclK2-12" value="&lt;b&gt;sales&lt;/b&gt;" style="rounded=1;whiteSpace=wrap;html=1;fillColor=#fff2cc;strokeColor=#d6b656;" vertex="1" parent="1">
          <mxGeometry x="670" y="190" width="110" height="40" as="geometry" />
        </mxCell>
        <mxCell id="p9el1GTdu6GcQU3KclK2-13" value="" style="endArrow=classic;html=1;rounded=0;" edge="1" parent="1">
          <mxGeometry width="50" height="50" relative="1" as="geometry">
            <mxPoint x="590" y="210" as="sourcePoint" />
            <mxPoint x="670" y="209.5" as="targetPoint" />
            <Array as="points">
              <mxPoint x="670" y="209.5" />
            </Array>
          </mxGeometry>
        </mxCell>
        <mxCell id="p9el1GTdu6GcQU3KclK2-14" value="" style="endArrow=classic;html=1;rounded=0;exitX=1;exitY=0.75;exitDx=0;exitDy=0;jumpStyle=gap;" edge="1" parent="1" source="8aWMY3QicTbjsUbQjaiv-4">
          <mxGeometry width="50" height="50" relative="1" as="geometry">
            <mxPoint x="590" y="310" as="sourcePoint" />
            <mxPoint x="670" y="350" as="targetPoint" />
            <Array as="points">
              <mxPoint x="670" y="350" />
            </Array>
          </mxGeometry>
        </mxCell>
        <mxCell id="p9el1GTdu6GcQU3KclK2-15" value="" style="endArrow=classic;html=1;rounded=0;exitX=1;exitY=0.75;exitDx=0;exitDy=0;jumpStyle=gap;" edge="1" parent="1" source="8aWMY3QicTbjsUbQjaiv-5">
          <mxGeometry width="50" height="50" relative="1" as="geometry">
            <mxPoint x="600" y="410" as="sourcePoint" />
            <mxPoint x="670" y="470" as="targetPoint" />
            <Array as="points">
              <mxPoint x="670" y="470" />
            </Array>
          </mxGeometry>
        </mxCell>
        <mxCell id="p9el1GTdu6GcQU3KclK2-16" value="" style="endArrow=classic;html=1;rounded=0;exitX=1;exitY=0.5;exitDx=0;exitDy=0;jumpStyle=gap;" edge="1" parent="1" source="8aWMY3QicTbjsUbQjaiv-6">
          <mxGeometry width="50" height="50" relative="1" as="geometry">
            <mxPoint x="600" y="424.64" as="sourcePoint" />
            <mxPoint x="670" y="484.64" as="targetPoint" />
            <Array as="points">
              <mxPoint x="670" y="484.64" />
            </Array>
          </mxGeometry>
        </mxCell>
        <mxCell id="p9el1GTdu6GcQU3KclK2-17" value="" style="endArrow=classic;html=1;rounded=0;jumpStyle=gap;" edge="1" parent="1">
          <mxGeometry width="50" height="50" relative="1" as="geometry">
            <mxPoint x="590" y="475" as="sourcePoint" />
            <mxPoint x="670" y="474.5" as="targetPoint" />
            <Array as="points">
              <mxPoint x="670" y="474.5" />
            </Array>
          </mxGeometry>
        </mxCell>
        <mxCell id="p9el1GTdu6GcQU3KclK2-18" value="" style="endArrow=classic;html=1;rounded=0;exitX=1;exitY=0.5;exitDx=0;exitDy=0;jumpStyle=gap;" edge="1" parent="1" source="8aWMY3QicTbjsUbQjaiv-8">
          <mxGeometry width="50" height="50" relative="1" as="geometry">
            <mxPoint x="570" y="430" as="sourcePoint" />
            <mxPoint x="670" y="370" as="targetPoint" />
            <Array as="points">
              <mxPoint x="670" y="370" />
            </Array>
          </mxGeometry>
        </mxCell>
      </root>
    </mxGraphModel>
  </diagram>
</mxfile>
